<svg width="26" height="26" viewBox="0 0 26 26" fill="none" xmlns="http://www.w3.org/2000/svg">
<g clip-path="url(#clip0_38_1185)">
<path d="M13.9435 23.1895C15.9867 20.6005 20.6467 14.3258 20.6467 10.8012C20.6467 6.52665 17.2214 3.05859 12.9996 3.05859C8.77778 3.05859 5.35254 6.52665 5.35254 10.8012C5.35254 14.3258 10.0125 20.6005 12.0557 23.1895C12.5456 23.8065 13.4536 23.8065 13.9435 23.1895ZM12.9996 8.22036C13.6756 8.22036 14.324 8.49227 14.802 8.97628C15.2801 9.46029 15.5486 10.1167 15.5486 10.8012C15.5486 11.4857 15.2801 12.1422 14.802 12.6262C14.324 13.1102 13.6756 13.3821 12.9996 13.3821C12.3236 13.3821 11.6752 13.1102 11.1972 12.6262C10.7191 12.1422 10.4506 11.4857 10.4506 10.8012C10.4506 10.1167 10.7191 9.46029 11.1972 8.97628C11.6752 8.49227 12.3236 8.22036 12.9996 8.22036Z" fill="black"/>
</g>
<defs>
<clipPath id="clip0_38_1185">
<rect width="15.2941" height="20.6471" fill="white" transform="translate(5.35254 3.05859)"/>
</clipPath>
</defs>
</svg>
