<svg width="26" height="26" viewBox="0 0 26 26" fill="none" xmlns="http://www.w3.org/2000/svg">
<path d="M10.1191 4.8656C9.83334 4.21172 9.08005 3.86369 8.36016 4.05001L5.09468 4.89372C4.449 5.06246 4 5.61791 4 6.25069C4 14.948 11.4438 22 20.6243 22C21.2922 22 21.8785 21.5746 22.0566 20.9629L22.9472 17.8693C23.1439 17.1873 22.7765 16.4737 22.0863 16.203L18.524 14.7968C17.9191 14.5578 17.2178 14.723 16.8059 15.2046L15.3067 16.9377C12.6943 15.7671 10.5792 13.7633 9.34351 11.2884L11.1729 9.87163C11.6813 9.4779 11.8557 8.81699 11.6034 8.24397L10.1191 4.86911V4.8656Z" fill="black"/>
</svg>
