<svg width="26" height="26" viewBox="0 0 26 26" fill="none" xmlns="http://www.w3.org/2000/svg">
<g clip-path="url(#clip0_38_1194)">
<path d="M13 3C15.6522 3 18.1957 4.05357 20.0711 5.92893C21.9464 7.8043 23 10.3478 23 13C23 15.6522 21.9464 18.1957 20.0711 20.0711C18.1957 21.9464 15.6522 23 13 23C10.3478 23 7.8043 21.9464 5.92893 20.0711C4.05357 18.1957 3 15.6522 3 13C3 10.3478 4.05357 7.8043 5.92893 5.92893C7.8043 4.05357 10.3478 3 13 3ZM12.0625 7.6875V13C12.0625 13.3125 12.2188 13.6055 12.4805 13.7812L16.2305 16.2812C16.6602 16.5703 17.2422 16.4531 17.5312 16.0195C17.8203 15.5859 17.7031 15.0078 17.2695 14.7188L13.9375 12.5V7.6875C13.9375 7.16797 13.5195 6.75 13 6.75C12.4805 6.75 12.0625 7.16797 12.0625 7.6875Z" fill="black"/>
</g>
<defs>
<clipPath id="clip0_38_1194">
<rect width="20" height="20" fill="white" transform="translate(3 3)"/>
</clipPath>
</defs>
</svg>
